<?xml version="1.0" encoding="utf-8"?>
<!-- Generator: Adobe Illustrator 21.1.0, SVG Export Plug-In . SVG Version: 6.00 Build 0)  -->
<svg version="1.1"
	 id="svg1936" inkscape:version="0.91 r13725" sodipodi:docname="Amazon.com-Logo.svg" xmlns:cc="http://creativecommons.org/ns#" xmlns:dc="http://purl.org/dc/elements/1.1/" xmlns:inkscape="http://www.inkscape.org/namespaces/inkscape" xmlns:rdf="http://www.w3.org/1999/02/22-rdf-syntax-ns#" xmlns:sodipodi="http://sodipodi.sourceforge.net/DTD/sodipodi-0.dtd" xmlns:svg="http://www.w3.org/2000/svg"
	 xmlns="http://www.w3.org/2000/svg" xmlns:xlink="http://www.w3.org/1999/xlink" x="0px" y="0px" viewBox="0 0 262.4 79.1"
	 style="enable-background:new 0 0 262.4 79.1;" xml:space="preserve">
<style type="text/css">
	.st0{fill:#FFFFFF;}
</style>
<sodipodi:namedview  bordercolor="#666666" borderopacity="1" gridtolerance="10" guidetolerance="10" id="namedview19" inkscape:current-layer="svg1936" inkscape:cx="515.8293" inkscape:cy="60.382118" inkscape:pageopacity="0" inkscape:pageshadow="2" inkscape:window-height="706" inkscape:window-maximized="1" inkscape:window-width="1280" inkscape:window-x="-8" inkscape:window-y="-8" inkscape:zoom="0.72245926" objecttolerance="10" pagecolor="#ffffff" showgrid="false">
	</sodipodi:namedview>
<path id="path8" inkscape:connector-curvature="0" class="st0" d="M162.8,61.8c-15.2,11.2-37.3,17.2-56.4,17.2
	c-26.7,0-50.7-9.9-68.9-26.3c-1.4-1.3-0.1-3,1.6-2C58.7,62.2,83,69,108,69c16.9,0,35.5-3.5,52.6-10.7
	C163.1,57.2,165.3,60,162.8,61.8"/>
<path id="path10" inkscape:connector-curvature="0" class="st0" d="M169.1,54.6c-1.9-2.5-12.9-1.2-17.8-0.6
	c-1.5,0.2-1.7-1.1-0.4-2.1c8.7-6.1,23-4.4,24.7-2.3c1.7,2.1-0.4,16.4-8.6,23.2c-1.3,1.1-2.5,0.5-1.9-0.9
	C166.9,67.4,171.1,57.1,169.1,54.6"/>
<path id="path12" inkscape:connector-curvature="0" class="st0" d="M151.7,8.6v-6c0-0.9,0.7-1.5,1.5-1.5h26.7c0.9,0,1.5,0.6,1.5,1.5
	v5.1c0,0.9-0.7,2-2,3.7l-13.8,19.7c5.1-0.1,10.6,0.6,15.2,3.3c1.1,0.6,1.3,1.5,1.4,2.3v6.4c0,0.9-1,1.9-2,1.4
	c-8.2-4.3-19.1-4.8-28.2,0c-0.9,0.5-1.9-0.5-1.9-1.4v-6c0-1,0-2.6,1-4.1l16-23h-13.9C152.4,10.1,151.7,9.5,151.7,8.6"/>
<path id="path14" inkscape:connector-curvature="0" class="st0" d="M54.3,45.8h-8.1c-0.8-0.1-1.4-0.6-1.5-1.4V2.8
	c0-0.8,0.7-1.5,1.6-1.5h7.6c0.8,0,1.4,0.6,1.5,1.4v5.4h0.1c2-5.3,5.7-7.7,10.7-7.7c5.1,0,8.3,2.5,10.5,7.7c2-5.3,6.4-7.7,11.2-7.7
	c3.4,0,7.1,1.4,9.4,4.6c2.6,3.5,2,8.6,2,13.1l0,26.3c0,0.8-0.7,1.5-1.6,1.5h-8.1c-0.8-0.1-1.5-0.7-1.5-1.5V22.2
	c0-1.8,0.2-6.1-0.2-7.8c-0.6-2.8-2.4-3.6-4.8-3.6c-2,0-4,1.3-4.9,3.4c-0.8,2.1-0.8,5.6-0.8,8v22.1c0,0.8-0.7,1.5-1.6,1.5h-8.1
	c-0.8-0.1-1.5-0.7-1.5-1.5l0-22.1c0-4.6,0.8-11.5-5-11.5c-5.8,0-5.6,6.7-5.6,11.5v22.1C55.9,45.2,55.2,45.8,54.3,45.8"/>
<path id="path16" inkscape:connector-curvature="0" class="st0" d="M204.4,0.4c12,0,18.6,10.3,18.6,23.5c0,12.7-7.2,22.8-18.6,22.8
	c-11.8,0-18.3-10.3-18.3-23.2C186.1,10.5,192.6,0.4,204.4,0.4 M204.5,8.9c-6,0-6.4,8.2-6.4,13.2c0,5.1-0.1,16,6.3,16
	c6.3,0,6.6-8.8,6.6-14.1c0-3.5-0.1-7.7-1.2-11.1C208.9,10,207,8.9,204.5,8.9"/>
<path id="path18" inkscape:connector-curvature="0" class="st0" d="M238.6,45.8h-8.1c-0.8-0.1-1.5-0.7-1.5-1.5l0-41.7
	c0.1-0.8,0.7-1.4,1.6-1.4h7.5c0.7,0,1.3,0.5,1.5,1.2v6.4h0.1c2.3-5.7,5.5-8.4,11.1-8.4c3.6,0,7.2,1.3,9.5,4.9
	c2.1,3.3,2.1,8.9,2.1,13v26.2c-0.1,0.7-0.8,1.3-1.6,1.3h-8.1c-0.7-0.1-1.4-0.6-1.4-1.3V21.9c0-4.6,0.5-11.2-5.1-11.2
	c-2,0-3.8,1.3-4.7,3.3c-1.1,2.5-1.3,5.1-1.3,7.9v22.4C240.2,45.2,239.5,45.8,238.6,45.8"/>
<path id="path28" inkscape:connector-curvature="0" class="st0" d="M144.8,38.2c-1.5-2.1-3.1-3.7-3.1-7.5V18c0-5.4,0.4-10.3-3.6-14
	c-3.1-3-8.3-4-12.2-4c-7.7,0-16.4,2.9-18.2,12.4c-0.2,1,0.5,1.6,1.2,1.7l7.9,0.8c0.7,0,1.3-0.8,1.4-1.5c0.7-3.3,3.4-4.9,6.5-4.9
	c1.7,0,3.6,0.6,4.6,2.1c1.1,1.7,1,4,1,5.9v1c-4.7,0.5-10.9,0.9-15.3,2.8c-5.1,2.2-8.7,6.7-8.7,13.3c0,8.4,5.3,12.7,12.2,12.7
	c5.8,0,8.9-1.4,13.4-5.9c1.5,2.1,2,3.2,4.7,5.4c0.6,0.3,1.4,0.3,1.9-0.2l0,0c1.6-1.4,4.6-4,6.2-5.4
	C145.5,39.8,145.4,38.9,144.8,38.2z M128.9,34.5c-1.3,2.3-3.3,3.7-5.6,3.7c-3.1,0-4.9-2.4-4.9-5.9c0-6.9,6.2-8.2,12.1-8.2v1.8
	C130.4,29.1,130.5,31.7,128.9,34.5z"/>
<path id="path30" inkscape:connector-curvature="0" class="st0" d="M38.4,38.2c-1.5-2.1-3.1-3.7-3.1-7.5V18c0-5.4,0.4-10.3-3.6-14
	c-3.1-3-8.3-4-12.2-4C11.8,0,3.2,2.9,1.4,12.4c-0.2,1,0.5,1.6,1.2,1.7l7.9,0.8c0.7,0,1.3-0.8,1.4-1.5c0.7-3.3,3.4-4.9,6.5-4.9
	c1.7,0,3.6,0.6,4.6,2.1c1.1,1.7,1,4,1,5.9v1c-4.7,0.5-10.9,0.9-15.3,2.8C3.6,22.7,0,27.2,0,33.8c0,8.4,5.3,12.7,12.2,12.7
	c5.8,0,8.9-1.4,13.4-5.9c1.5,2.1,2,3.2,4.7,5.4c0.6,0.3,1.4,0.3,1.9-0.2l0,0c1.6-1.4,4.6-4,6.2-5.4C39,39.8,38.9,38.9,38.4,38.2z
	 M22.4,34.5c-1.3,2.3-3.3,3.7-5.6,3.7c-3.1,0-4.9-2.4-4.9-5.9c0-6.9,6.2-8.2,12.1-8.2v1.8C23.9,29.1,24,31.7,22.4,34.5z"/>
</svg>
